<?xml version="1.0" encoding="UTF-8"?>
<svg xmlns="http://www.w3.org/2000/svg" style="display: none;">
    
    <!-- Download Icon -->
    <symbol id="icon-download" viewBox="0 0 24 24">
        <path d="M19 12v7H5v-7H3v7c0 1.1.9 2 2 2h14c1.1 0 2-.9 2-2v-7h-2zm-6 .67l2.59-2.58L17 11.5l-5 5-5-5 1.41-1.41L11 12.67V3h2z"/>
    </symbol>

    <!-- Trash/Delete Icon -->
    <symbol id="icon-trash" viewBox="0 0 24 24">
        <path d="M6 19c0 1.1.9 2 2 2h8c1.1 0 2-.9 2-2V7H6v12zM19 4h-3.5l-1-1h-5l-1 1H5v2h14V4z"/>
    </symbol>

    <!-- Plus/Add Icon -->
    <symbol id="icon-plus" viewBox="0 0 24 24">
        <path d="M19 13h-6v6h-2v-6H5v-2h6V5h2v6h6v2z"/>
    </symbol>

    <!-- Folder Icon -->
    <symbol id="icon-folder" viewBox="0 0 24 24">
        <path d="M10 4H4c-1.1 0-1.99.9-1.99 2L2 18c0 1.1.9 2 2 2h16c1.1 0 2-.9 2-2V8c0-1.1-.9-2-2-2h-8l-2-2z"/>
    </symbol>

    <!-- Video Placeholder Icon -->
    <symbol id="icon-video-placeholder" viewBox="0 0 24 24">
        <path d="M21 3H3c-1.1 0-2 .9-2 2v12c0 1.1.9 2 2 2h5v2h8v-2h5c1.1 0 2-.9 2-2V5c0-1.1-.9-2-2-2zm0 14H3V5h18v12zm-10-6l-4 4h8l-4-4z"/>
    </symbol>

    <!-- Loading Spinner Icon (rotates via CSS) -->
    <symbol id="icon-loading" viewBox="0 0 24 24">
        <circle cx="12" cy="12" r="10" opacity="0.3"/>
        <path d="M12 2 A10 10 0 0 1 22 12" stroke="currentColor" stroke-width="2" fill="none"/>
    </symbol>

    <!-- Play Icon -->
    <symbol id="icon-play" viewBox="0 0 24 24">
        <path d="M8 5v14l11-7z"/>
    </symbol>

    <!-- Camera/Screenshot Icon -->
    <symbol id="icon-camera" viewBox="0 0 24 24">
        <path d="M12 15.5c1.66 0 3-1.34 3-3s-1.34-3-3-3-3 1.34-3 3 1.34 3 3 3z"/>
        <path d="M9 2L7.17 4H4c-1.1 0-2 .9-2 2v12c0 1.1.9 2 2 2h16c1.1 0 2-.9 2-2V6c0-1.1-.9-2-2-2h-3.17L15 2H9zm3 15c-2.76 0-5-2.24-5-5s2.24-5 5-5 5 2.24 5 5-2.24 5-5 5z"/>
    </symbol>

    <!-- Close Icon -->
    <symbol id="icon-close" viewBox="0 0 24 24">
        <path d="M19 6.41L17.59 5 12 10.59 6.41 5 5 6.41 10.59 12 5 17.59 6.41 19 12 13.41 17.59 19 19 17.59 13.41 12z"/>
    </symbol>

    <!-- Chevron Left (Previous) -->
    <symbol id="icon-chevron-left" viewBox="0 0 24 24">
        <path d="M15.41 7.41L14 6l-6 6 6 6 1.41-1.41L10.83 12z"/>
    </symbol>

    <!-- Chevron Right (Next) -->
    <symbol id="icon-chevron-right" viewBox="0 0 24 24">
        <path d="M10 6L8.59 7.41 13.17 12l-4.58 4.59L10 18l6-6z"/>
    </symbol>

    <!-- Pause Icon -->
    <symbol id="icon-pause" viewBox="0 0 24 24">
        <path d="M6 19h4V5H6v14zm8-14v14h4V5h-4z"/>
    </symbol>

    <!-- Volume Icons -->
    <symbol id="icon-volume-high" viewBox="0 0 24 24">
        <path d="M3 9v6h4l5 5V4L7 9H3zm13.5 3c0-1.77-1.02-3.29-2.5-4.03v8.05c1.48-.73 2.5-2.25 2.5-4.02zM14 3.23v2.06c2.89.86 5 3.54 5 6.71s-2.11 5.85-5 6.71v2.06c4.01-.91 7-4.49 7-8.77s-2.99-7.86-7-8.77z"/>
    </symbol>
    <symbol id="icon-volume-mute" viewBox="0 0 24 24">
        <path d="M16.5 12c0-1.77-1.02-3.29-2.5-4.03v2.21l2.45 2.45c.03-.2.05-.41.05-.63zm2.5 0c0 .94-.2 1.82-.54 2.64l1.51 1.51C20.63 14.91 21 13.5 21 12c0-4.28-2.99-7.86-7-8.77v2.06c2.89.86 5 3.54 5 6.71zM4.27 3L3 4.27 7.73 9H3v6h4l5 5v-6.73l4.25 4.25c-.67.52-1.42.93-2.25 1.18v2.06c1.38-.31 2.63-.95 3.69-1.81L19.73 21 21 19.73 4.27 3zM12 4L9.91 6.09 12 8.18V4z"/>
    </symbol>

    <!-- Fullscreen Icons -->
    <symbol id="icon-fullscreen" viewBox="0 0 24 24">
        <path d="M7 14H5v5h5v-2H7v-3zm-2-4h2V7h3V5H5v5zm12 7h-3v2h5v-5h-2v3zM14 5v2h3v3h2V5h-5z"/>
    </symbol>
    <symbol id="icon-fullscreen-exit" viewBox="0 0 24 24">
        <path d="M5 16h3v3h2v-5H5v2zm3-8H5v2h5V5H8v3zm6 11h2v-3h3v-2h-5v5zm2-11V5h-2v5h5V8h-3z"/>
    </symbol>

    <!-- CC Icon -->
    <symbol id="icon-cc" viewBox="0 0 24 24">
        <path d="M19 4H5c-1.11 0-2 .9-2 2v12c0 1.1.89 2 2 2h14c1.1 0 2-.9 2-2V6c0-1.1-.9-2-2-2zm-8 7H9.5v-.5h-2v3h2V13H11v1c0 .55-.45 1-1 1H7c-.55 0-1-.45-1-1v-4c0-.55.45-1 1-1h3c.55 0 1 .45 1 1v1zm7 0h-1.5v-.5h-2v3h2V13H18v1c0 .55-.45 1-1 1h-3c-.55 0-1-.45-1-1v-4c0-.55.45-1 1-1h3c.55 0 1 .45 1 1v1z"/>
    </symbol>

    <!-- Audio Icon -->
    <symbol id="icon-audio" viewBox="0 0 24 24">
        <path d="M12 3v9.28c-.47-.17-.97-.28-1.5-.28C8.01 12 6 14.01 6 16.5S8.01 21 10.5 21c2.31 0 4.2-1.75 4.45-4H15V6h4V3h-7z"/>
    </symbol>

    <!-- Loop Icons -->
    <symbol id="icon-loop" viewBox="0 0 24 24">
        <path d="M7 7h10v3l4-4-4-4v3H5v6h2V7zm10 10H7v-3l-4 4 4 4v-3h12v-6h-2v4z"/>
    </symbol>
    <symbol id="icon-loop-playlist" viewBox="0 0 24 24">
        <path d="M7 7h10v3l4-4-4-4v3H5v6h2V7zm10 10H7v-3l-4 4 4 4v-3h12v-6h-2v4z"/>
        <text x="12" y="16" font-size="8" text-anchor="middle" fill="currentColor" font-weight="bold">LIST</text>
    </symbol>
    <symbol id="icon-loop-one" viewBox="0 0 24 24">
        <path d="M7 7h10v3l4-4-4-4v3H5v6h2V7zm10 10H7v-3l-4 4 4 4v-3h12v-6h-2v4z"/>
        <text x="12" y="16" font-size="8" text-anchor="middle" fill="currentColor" font-weight="bold">1</text>
    </symbol>
    <symbol id="icon-loop-ab" viewBox="0 0 24 24">
        <path d="M7 7h10v3l4-4-4-4v3H5v6h2V7zm10 10H7v-3l-4 4 4 4v-3h12v-6h-2v4z"/>
        <text x="12" y="16" font-size="8" text-anchor="middle" fill="currentColor" font-weight="bold">A-B</text>
    </symbol>

    <!-- Link Icon -->
    <symbol id="icon-link" viewBox="0 0 24 24">
        <path d="M3.9 12c0-1.71 1.39-3.1 3.1-3.1h4V7H7c-2.76 0-5 2.24-5 5s2.24 5 5 5h4v-1.9H7c-1.71 0-3.1-1.39-3.1-3.1zM8 13h8v-2H8v2zm9-6h-4v1.9h4c1.71 0 3.1 1.39 3.1 3.1s-1.39 3.1-3.1 3.1h-4V17h4c2.76 0 5-2.24 5-5s-2.24-5-5-5z"/>
    </symbol>
</svg>
